<svg width="76" height="85" viewBox="0 0 76 85" fill="none" xmlns="http://www.w3.org/2000/svg">
<path d="M38 31.875L19 41.1719L38 53.125L57 41.1719L38 31.875Z" fill="url(#paint0_linear_108_49)"/>
<path d="M18.9751 42.7842L36.822 54.1902C37.1854 54.4213 37.5915 54.5368 37.9989 54.5368C38.4062 54.5368 38.8135 54.4213 39.1769 54.1888L57.0226 42.7829C57.5843 42.423 57.9952 41.8147 58.1495 41.1134C58.3051 40.4122 58.1947 39.6605 57.8479 39.0509L40.0034 7.68852C39.5652 6.91821 38.8159 6.45868 38 6.45868C37.183 6.45868 36.4349 6.91821 35.9955 7.68852L18.1498 39.0522C17.803 39.6618 17.6926 40.4122 17.8482 41.1148C18.0025 41.8174 18.4146 42.4256 18.9751 42.7842ZM20.8977 40.9567L36.8125 33.8366V51.1249L20.8977 40.9567ZM39.1875 33.8366L55.1 40.9554L39.1875 51.1262V33.8366ZM54.2807 37.7281L39.1875 30.9759V11.2014L54.2807 37.7281ZM36.8125 11.2014V30.9759L21.7194 37.7281L36.8125 11.2014Z" fill="url(#paint1_linear_108_49)"/>
<path d="M59.5864 46.5202C59.2076 46.0501 58.5818 45.9438 58.0961 46.2679L38 59.6634L17.904 46.2679C17.4183 45.9425 16.7936 46.0474 16.4136 46.5202C16.0348 46.9917 16.0051 47.697 16.3448 48.2043L36.0881 77.6953C36.5406 78.3833 37.2376 78.7764 38 78.7764C38.7624 78.7764 39.4595 78.3833 39.906 77.7033L59.6541 48.2043C59.9937 47.697 59.9652 46.9917 59.5864 46.5202ZM21.8453 51.9868L36.8125 61.9637V74.3458L21.8453 51.9868ZM39.1875 74.3325V61.9637L54.1524 51.9881L39.1875 74.3325Z" fill="url(#paint2_linear_108_49)"/>
<defs>
<linearGradient id="paint0_linear_108_49" x1="38" y1="30.434" x2="38" y2="52.437" gradientUnits="userSpaceOnUse">
<stop stop-color="white"/>
<stop offset="1" stop-color="#D78383"/>
</linearGradient>
<linearGradient id="paint1_linear_108_49" x1="38" y1="5.73618" x2="38" y2="75.0869" gradientUnits="userSpaceOnUse">
<stop stop-color="#D30D0D"/>
<stop offset="1" stop-color="#F1BA0A"/>
</linearGradient>
<linearGradient id="paint2_linear_108_49" x1="38" y1="5.73618" x2="38" y2="75.0869" gradientUnits="userSpaceOnUse">
<stop stop-color="#F1BA0A"/>
<stop offset="1" stop-color="#D30D0D"/>
</linearGradient>
</defs>
</svg>
