<svg width="283" height="85" viewBox="0 0 283 85" fill="none" xmlns="http://www.w3.org/2000/svg">
<path d="M98.4039 64.48C95.5772 64.48 93.1506 63.88 91.1239 62.68C89.0972 61.4533 87.5372 59.76 86.4439 57.6C85.3506 55.4133 84.8039 52.8933 84.8039 50.04C84.8039 47.1867 85.3506 44.6667 86.4439 42.48C87.5372 40.2933 89.0972 38.5867 91.1239 37.36C93.1506 36.1333 95.5772 35.52 98.4039 35.52C101.764 35.52 104.511 36.36 106.644 38.04C108.804 39.6933 110.151 42.0267 110.684 45.04H105.044C104.697 43.52 103.951 42.3333 102.804 41.48C101.684 40.6 100.191 40.16 98.3239 40.16C95.7372 40.16 93.7106 41.04 92.2439 42.8C90.7772 44.56 90.0439 46.9733 90.0439 50.04C90.0439 53.1067 90.7772 55.52 92.2439 57.28C93.7106 59.0133 95.7372 59.88 98.3239 59.88C100.191 59.88 101.684 59.48 102.804 58.68C103.951 57.8533 104.697 56.72 105.044 55.28H110.684C110.151 58.16 108.804 60.4133 106.644 62.04C104.511 63.6667 101.764 64.48 98.4039 64.48ZM123.816 64V36H134.096C136.336 36 138.176 36.3867 139.616 37.16C141.083 37.9067 142.176 38.9333 142.896 40.24C143.616 41.52 143.976 42.9467 143.976 44.52C143.976 46.2267 143.523 47.7867 142.616 49.2C141.736 50.6133 140.349 51.64 138.456 52.28L144.256 64H138.376L133.176 52.96H128.936V64H123.816ZM128.936 49.2H133.776C135.483 49.2 136.736 48.7867 137.536 47.96C138.336 47.1333 138.736 46.04 138.736 44.68C138.736 43.3467 138.336 42.28 137.536 41.48C136.763 40.68 135.496 40.28 133.736 40.28H128.936V49.2ZM163.601 64V54.04L154.201 36H160.001L166.201 48.92L172.361 36H178.081L168.721 54.04V64H163.601ZM189.961 64V36H200.321C202.561 36 204.415 36.3733 205.881 37.12C207.348 37.8667 208.441 38.8933 209.161 40.2C209.881 41.5067 210.241 42.9733 210.241 44.6C210.241 46.1467 209.895 47.5733 209.201 48.88C208.508 50.16 207.428 51.2 205.961 52C204.495 52.7733 202.615 53.16 200.321 53.16H195.081V64H189.961ZM195.081 49H200.001C201.788 49 203.068 48.6133 203.841 47.84C204.641 47.04 205.041 45.96 205.041 44.6C205.041 43.2133 204.641 42.1333 203.841 41.36C203.068 40.56 201.788 40.16 200.001 40.16H195.081V49ZM229.378 64V40.12H221.218V36H242.698V40.12H234.498V64H229.378ZM267.195 64.48C264.395 64.48 261.942 63.8667 259.835 62.64C257.755 61.4133 256.115 59.72 254.915 57.56C253.742 55.3733 253.155 52.8533 253.155 50C253.155 47.1467 253.742 44.64 254.915 42.48C256.115 40.2933 257.755 38.5867 259.835 37.36C261.942 36.1333 264.395 35.52 267.195 35.52C269.969 35.52 272.409 36.1333 274.515 37.36C276.622 38.5867 278.262 40.2933 279.435 42.48C280.609 44.64 281.195 47.1467 281.195 50C281.195 52.8533 280.609 55.3733 279.435 57.56C278.262 59.72 276.622 61.4133 274.515 62.64C272.409 63.8667 269.969 64.48 267.195 64.48ZM267.195 59.88C269.862 59.88 271.982 59 273.555 57.24C275.155 55.48 275.955 53.0667 275.955 50C275.955 46.9333 275.155 44.52 273.555 42.76C271.982 41 269.862 40.12 267.195 40.12C264.529 40.12 262.395 41 260.795 42.76C259.195 44.52 258.395 46.9333 258.395 50C258.395 53.0667 259.195 55.48 260.795 57.24C262.395 59 264.529 59.88 267.195 59.88Z" fill="white"/>
<path d="M38 31.875L19 41.1719L38 53.125L57 41.1719L38 31.875Z" fill="url(#paint0_linear_27_49)"/>
<path d="M18.9751 42.7842L36.822 54.1902C37.1854 54.4213 37.5915 54.5368 37.9989 54.5368C38.4062 54.5368 38.8135 54.4213 39.1769 54.1888L57.0226 42.7829C57.5843 42.423 57.9952 41.8147 58.1495 41.1134C58.3051 40.4122 58.1947 39.6605 57.8479 39.0509L40.0034 7.68852C39.5652 6.91821 38.8159 6.45868 38 6.45868C37.183 6.45868 36.4349 6.91821 35.9955 7.68852L18.1498 39.0522C17.803 39.6618 17.6926 40.4122 17.8482 41.1148C18.0025 41.8174 18.4146 42.4256 18.9751 42.7842ZM20.8977 40.9567L36.8125 33.8366V51.1249L20.8977 40.9567ZM39.1875 33.8366L55.1 40.9554L39.1875 51.1262V33.8366ZM54.2807 37.7281L39.1875 30.9759V11.2014L54.2807 37.7281ZM36.8125 11.2014V30.9759L21.7194 37.7281L36.8125 11.2014Z" fill="url(#paint1_linear_27_49)"/>
<path d="M59.5864 46.5202C59.2076 46.0501 58.5818 45.9438 58.0961 46.2679L38 59.6634L17.904 46.2679C17.4183 45.9425 16.7936 46.0474 16.4136 46.5202C16.0348 46.9917 16.0051 47.697 16.3448 48.2043L36.0881 77.6953C36.5406 78.3833 37.2376 78.7764 38 78.7764C38.7624 78.7764 39.4595 78.3833 39.906 77.7033L59.6541 48.2043C59.9937 47.697 59.9652 46.9917 59.5864 46.5202ZM21.8453 51.9868L36.8125 61.9637V74.3458L21.8453 51.9868ZM39.1875 74.3325V61.9637L54.1524 51.9881L39.1875 74.3325Z" fill="url(#paint2_linear_27_49)"/>
<defs>
<linearGradient id="paint0_linear_27_49" x1="38" y1="30.434" x2="38" y2="52.437" gradientUnits="userSpaceOnUse">
<stop stop-color="white"/>
<stop offset="1" stop-color="#D78383"/>
</linearGradient>
<linearGradient id="paint1_linear_27_49" x1="38" y1="5.73618" x2="38" y2="75.0869" gradientUnits="userSpaceOnUse">
<stop stop-color="#D30D0D"/>
<stop offset="1" stop-color="#F1BA0A"/>
</linearGradient>
<linearGradient id="paint2_linear_27_49" x1="38" y1="5.73618" x2="38" y2="75.0869" gradientUnits="userSpaceOnUse">
<stop stop-color="#F1BA0A"/>
<stop offset="1" stop-color="#D30D0D"/>
</linearGradient>
</defs>
</svg>
